name rise38.3101peak57.3503fall81.6963.mot
datacolumns 19
datarows 55
range 18.746598 18.836600
endheader
time	ground_force1_vx	ground_force1_vy	ground_force1_vz	ground_force1_px	ground_force1_py	ground_force1_pz	ground_force2_vx	ground_force2_vy	ground_force2_vz	ground_force2_px	ground_force2_py	ground_force2_pz	ground_torque1_x	ground_torque1_y	ground_torque1_z	ground_torque2_x	ground_torque2_y	ground_torque2_z	
18.746598	0.000000	0.000000	0.000000	0.000000	0.000000	0.000000	1.639639	682.207984	-43.424021	0.233105	0.000000	-0.108432	0.000000	0.000000	0.000000	0.000000	-19.056836	0.000000	
18.748274	0.000000	0.000000	0.000000	0.000000	0.000000	0.000000	1.231103	682.259397	-43.357471	0.232325	0.000000	-0.108469	0.000000	0.000000	0.000000	0.000000	-19.079678	0.000000	
18.749935	0.000000	0.000000	0.000000	0.000000	0.000000	0.000000	0.830687	682.366813	-43.287207	0.231543	0.000000	-0.108507	0.000000	0.000000	0.000000	0.000000	-19.099643	0.000000	
18.751599	0.000000	0.000000	0.000000	0.000000	0.000000	0.000000	0.438111	682.528686	-43.213189	0.230760	0.000000	-0.108545	0.000000	0.000000	0.000000	0.000000	-19.116748	0.000000	
18.753265	0.000000	0.000000	0.000000	0.000000	0.000000	0.000000	0.053080	682.743436	-43.135407	0.229976	0.000000	-0.108584	0.000000	0.000000	0.000000	0.000000	-19.131029	0.000000	
18.754936	0.000000	0.000000	0.000000	0.000000	0.000000	0.000000	-0.324714	683.009456	-43.053880	0.229189	0.000000	-0.108623	0.000000	0.000000	0.000000	0.000000	-19.142537	0.000000	
18.756597	0.000000	0.000000	0.000000	0.000000	0.000000	0.000000	-0.695590	683.325122	-42.968659	0.228399	0.000000	-0.108663	0.000000	0.000000	0.000000	0.000000	-19.151344	0.000000	
18.758266	0.000000	0.000000	0.000000	0.000000	0.000000	0.000000	-1.059877	683.688799	-42.879824	0.227607	0.000000	-0.108703	0.000000	0.000000	0.000000	0.000000	-19.157536	0.000000	
18.759932	0.000000	0.000000	0.000000	0.000000	0.000000	0.000000	-1.417914	684.098854	-42.787482	0.226811	0.000000	-0.108744	0.000000	0.000000	0.000000	0.000000	-19.161217	0.000000	
18.761604	0.000000	0.000000	0.000000	0.000000	0.000000	0.000000	-1.770045	684.553659	-42.691773	0.226012	0.000000	-0.108785	0.000000	0.000000	0.000000	0.000000	-19.162504	0.000000	
18.763266	0.000000	0.000000	0.000000	0.000000	0.000000	0.000000	-2.116622	685.051601	-42.592862	0.225210	0.000000	-0.108828	0.000000	0.000000	0.000000	0.000000	-19.161530	0.000000	
18.764934	0.000000	0.000000	0.000000	0.000000	0.000000	0.000000	-2.458002	685.591092	-42.490941	0.224403	0.000000	-0.108871	0.000000	0.000000	0.000000	0.000000	-19.158440	0.000000	
18.766601	0.000000	0.000000	0.000000	0.000000	0.000000	0.000000	-2.794545	686.170574	-42.386231	0.223593	0.000000	-0.108915	0.000000	0.000000	0.000000	0.000000	-19.153395	0.000000	
18.768268	0.000000	0.000000	0.000000	0.000000	0.000000	0.000000	-3.126615	686.788527	-42.278975	0.222779	0.000000	-0.108960	0.000000	0.000000	0.000000	0.000000	-19.146562	0.000000	
18.769932	0.000000	0.000000	0.000000	0.000000	0.000000	0.000000	-3.454575	687.443477	-42.169441	0.221960	0.000000	-0.109006	0.000000	0.000000	0.000000	0.000000	-19.138124	0.000000	
18.771596	0.000000	0.000000	0.000000	0.000000	0.000000	0.000000	-3.778790	688.134000	-42.057920	0.221138	0.000000	-0.109053	0.000000	0.000000	0.000000	0.000000	-19.128268	0.000000	
18.773262	0.000000	0.000000	0.000000	0.000000	0.000000	0.000000	-4.099627	688.858734	-41.944725	0.220312	0.000000	-0.109102	0.000000	0.000000	0.000000	0.000000	-19.117195	0.000000	
18.774929	0.000000	0.000000	0.000000	0.000000	0.000000	0.000000	-4.417449	689.616378	-41.830188	0.219482	0.000000	-0.109151	0.000000	0.000000	0.000000	0.000000	-19.105108	0.000000	
18.776598	0.000000	0.000000	0.000000	0.000000	0.000000	0.000000	-4.732619	690.405703	-41.714659	0.218649	0.000000	-0.109202	0.000000	0.000000	0.000000	0.000000	-19.092221	0.000000	
18.778265	0.000000	0.000000	0.000000	0.000000	0.000000	0.000000	-5.045496	691.225555	-41.598506	0.217811	0.000000	-0.109254	0.000000	0.000000	0.000000	0.000000	-19.078750	0.000000	
18.779931	0.000000	0.000000	0.000000	0.000000	0.000000	0.000000	-5.356437	692.074857	-41.482111	0.216971	0.000000	-0.109307	0.000000	0.000000	0.000000	0.000000	-19.064916	0.000000	
18.781598	0.000000	0.000000	0.000000	0.000000	0.000000	0.000000	-5.665796	692.952618	-41.365870	0.216127	0.000000	-0.109361	0.000000	0.000000	0.000000	0.000000	-19.050944	0.000000	
18.783264	0.000000	0.000000	0.000000	0.000000	0.000000	0.000000	-5.973923	693.857932	-41.250193	0.215281	0.000000	-0.109417	0.000000	0.000000	0.000000	0.000000	-19.037060	0.000000	
18.784937	0.000000	0.000000	0.000000	0.000000	0.000000	0.000000	-6.281161	694.789983	-41.135497	0.214431	0.000000	-0.109474	0.000000	0.000000	0.000000	0.000000	-19.023493	0.000000	
18.786603	0.000000	0.000000	0.000000	0.000000	0.000000	0.000000	-6.587852	695.748047	-41.022210	0.213579	0.000000	-0.109532	0.000000	0.000000	0.000000	0.000000	-19.010469	0.000000	
18.788262	0.000000	0.000000	0.000000	0.000000	0.000000	0.000000	-6.894330	696.731493	-40.910766	0.212725	0.000000	-0.109592	0.000000	0.000000	0.000000	0.000000	-18.998217	0.000000	
18.789930	0.000000	0.000000	0.000000	0.000000	0.000000	0.000000	-7.200923	697.739783	-40.801605	0.211869	0.000000	-0.109653	0.000000	0.000000	0.000000	0.000000	-18.986961	0.000000	
18.791603	0.000000	0.000000	0.000000	0.000000	0.000000	0.000000	-7.507956	698.772474	-40.695170	0.211011	0.000000	-0.109715	0.000000	0.000000	0.000000	0.000000	-18.976923	0.000000	
18.793266	0.000000	0.000000	0.000000	0.000000	0.000000	0.000000	-7.815745	699.829217	-40.591906	0.210152	0.000000	-0.109779	0.000000	0.000000	0.000000	0.000000	-18.968324	0.000000	
18.794936	0.000000	0.000000	0.000000	0.000000	0.000000	0.000000	-8.124599	700.909755	-40.492260	0.209291	0.000000	-0.109844	0.000000	0.000000	0.000000	0.000000	-18.961377	0.000000	
18.796600	0.000000	0.000000	0.000000	0.000000	0.000000	0.000000	-8.434822	702.013922	-40.396675	0.208430	0.000000	-0.109911	0.000000	0.000000	0.000000	0.000000	-18.956291	0.000000	
18.798269	0.000000	0.000000	0.000000	0.000000	0.000000	0.000000	-8.746711	703.141640	-40.305594	0.207568	0.000000	-0.109978	0.000000	0.000000	0.000000	0.000000	-18.953270	0.000000	
18.799936	0.000000	0.000000	0.000000	0.000000	0.000000	0.000000	-9.060552	704.292916	-40.219455	0.206706	0.000000	-0.110047	0.000000	0.000000	0.000000	0.000000	-18.952510	0.000000	
18.801599	0.000000	0.000000	0.000000	0.000000	0.000000	0.000000	-9.376627	705.467838	-40.138691	0.205843	0.000000	-0.110118	0.000000	0.000000	0.000000	0.000000	-18.954199	0.000000	
18.803270	0.000000	0.000000	0.000000	0.000000	0.000000	0.000000	-9.695208	706.666573	-40.063727	0.204980	0.000000	-0.110189	0.000000	0.000000	0.000000	0.000000	-18.958517	0.000000	
18.804932	0.000000	0.000000	0.000000	0.000000	0.000000	0.000000	-10.016559	707.889359	-39.994982	0.204118	0.000000	-0.110262	0.000000	0.000000	0.000000	0.000000	-18.965636	0.000000	
18.806600	0.000000	0.000000	0.000000	0.000000	0.000000	0.000000	-10.340933	709.136498	-39.932864	0.203256	0.000000	-0.110337	0.000000	0.000000	0.000000	0.000000	-18.975718	0.000000	
18.808269	0.000000	0.000000	0.000000	0.000000	0.000000	0.000000	-10.668577	710.408355	-39.877770	0.202395	0.000000	-0.110412	0.000000	0.000000	0.000000	0.000000	-18.988912	0.000000	
18.809933	0.000000	0.000000	0.000000	0.000000	0.000000	0.000000	-10.999726	711.705347	-39.830087	0.201535	0.000000	-0.110488	0.000000	0.000000	0.000000	0.000000	-19.005362	0.000000	
18.811599	0.000000	0.000000	0.000000	0.000000	0.000000	0.000000	-11.334606	713.027939	-39.790187	0.200675	0.000000	-0.110566	0.000000	0.000000	0.000000	0.000000	-19.025195	0.000000	
18.813265	0.000000	0.000000	0.000000	0.000000	0.000000	0.000000	-11.673432	714.376634	-39.758431	0.199817	0.000000	-0.110645	0.000000	0.000000	0.000000	0.000000	-19.048531	0.000000	
18.814937	0.000000	0.000000	0.000000	0.000000	0.000000	0.000000	-12.016408	715.751966	-39.735163	0.198959	0.000000	-0.110725	0.000000	0.000000	0.000000	0.000000	-19.075475	0.000000	
18.816598	0.000000	0.000000	0.000000	0.000000	0.000000	0.000000	-12.363728	717.154490	-39.720711	0.198103	0.000000	-0.110806	0.000000	0.000000	0.000000	0.000000	-19.106121	0.000000	
18.818263	0.000000	0.000000	0.000000	0.000000	0.000000	0.000000	-12.715573	718.584778	-39.715386	0.197248	0.000000	-0.110888	0.000000	0.000000	0.000000	0.000000	-19.140550	0.000000	
18.819934	0.000000	0.000000	0.000000	0.000000	0.000000	0.000000	-13.072112	720.043404	-39.719484	0.196394	0.000000	-0.110971	0.000000	0.000000	0.000000	0.000000	-19.178832	0.000000	
18.821602	0.000000	0.000000	0.000000	0.000000	0.000000	0.000000	-13.433501	721.530940	-39.733279	0.195542	0.000000	-0.111054	0.000000	0.000000	0.000000	0.000000	-19.221020	0.000000	
18.823266	0.000000	0.000000	0.000000	0.000000	0.000000	0.000000	-13.799883	723.047945	-39.757028	0.194691	0.000000	-0.111139	0.000000	0.000000	0.000000	0.000000	-19.267158	0.000000	
18.824935	0.000000	0.000000	0.000000	0.000000	0.000000	0.000000	-14.171386	724.594953	-39.790966	0.193841	0.000000	-0.111225	0.000000	0.000000	0.000000	0.000000	-19.317275	0.000000	
18.826603	0.000000	0.000000	0.000000	0.000000	0.000000	0.000000	-14.548126	726.172469	-39.835309	0.192992	0.000000	-0.111311	0.000000	0.000000	0.000000	0.000000	-19.371385	0.000000	
18.828268	0.000000	0.000000	0.000000	0.000000	0.000000	0.000000	-14.930200	727.780954	-39.890250	0.192145	0.000000	-0.111398	0.000000	0.000000	0.000000	0.000000	-19.429490	0.000000	
18.829934	0.000000	0.000000	0.000000	0.000000	0.000000	0.000000	-15.317694	729.420822	-39.955960	0.191298	0.000000	-0.111486	0.000000	0.000000	0.000000	0.000000	-19.491579	0.000000	
18.831600	0.000000	0.000000	0.000000	0.000000	0.000000	0.000000	-15.710675	731.092425	-40.032589	0.190453	0.000000	-0.111574	0.000000	0.000000	0.000000	0.000000	-19.557626	0.000000	
18.833268	0.000000	0.000000	0.000000	0.000000	0.000000	0.000000	-16.109191	732.796047	-40.120260	0.189609	0.000000	-0.111663	0.000000	0.000000	0.000000	0.000000	-19.627592	0.000000	
18.834929	0.000000	0.000000	0.000000	0.000000	0.000000	0.000000	-16.513277	734.531896	-40.219074	0.188766	0.000000	-0.111753	0.000000	0.000000	0.000000	0.000000	-19.701423	0.000000	
18.836600	0.000000	0.000000	0.000000	0.000000	0.000000	0.000000	-16.922947	736.300093	-40.329108	0.187923	0.000000	-0.111843	0.000000	0.000000	0.000000	0.000000	-19.779053	0.000000	
